<svg id="visual" viewBox="0 0 900 600" width="900" height="600" xmlns="http://www.w3.org/2000/svg" xmlns:xlink="http://www.w3.org/1999/xlink" version="1.1"><rect x="0" y="0" width="900" height="600" fill="#B4A5C6"></rect><defs><linearGradient id="grad1_0" x1="33.3%" y1="100%" x2="100%" y2="0%"><stop offset="20%" stop-color="#b4a5c6" stop-opacity="1"></stop><stop offset="80%" stop-color="#b4a5c6" stop-opacity="1"></stop></linearGradient></defs><defs><linearGradient id="grad2_0" x1="0%" y1="100%" x2="66.7%" y2="0%"><stop offset="20%" stop-color="#b4a5c6" stop-opacity="1"></stop><stop offset="80%" stop-color="#b4a5c6" stop-opacity="1"></stop></linearGradient></defs><g transform="translate(900, 600)"><path d="M-486.7 0C-432.1 -60.5 -377.5 -121 -343.8 -198.5C-310.1 -276 -297.2 -370.7 -243.4 -421.5C-189.5 -472.4 -94.8 -479.6 0 -486.7L0 0Z" fill="#FFE167"></path></g><g transform="translate(0, 0)"><path d="M486.7 0C476.9 90 467 180.1 421.5 243.4C376.1 306.7 295.2 343.2 219 379.3C142.8 415.4 71.4 451.1 0 486.7L0 0Z" fill="#FFE167"></path></g></svg>