<svg id="visual" viewBox="0 0 900 600" width="900" height="600" xmlns="http://www.w3.org/2000/svg" xmlns:xlink="http://www.w3.org/1999/xlink" version="1.1"><rect x="0" y="0" width="900" height="600" fill="#B4A5C6"></rect><defs><linearGradient id="grad1_0" x1="33.3%" y1="0%" x2="100%" y2="100%"><stop offset="20%" stop-color="#b4a5c6" stop-opacity="1"></stop><stop offset="80%" stop-color="#b4a5c6" stop-opacity="1"></stop></linearGradient></defs><defs><linearGradient id="grad2_0" x1="0%" y1="0%" x2="66.7%" y2="100%"><stop offset="20%" stop-color="#b4a5c6" stop-opacity="1"></stop><stop offset="80%" stop-color="#b4a5c6" stop-opacity="1"></stop></linearGradient></defs><g transform="translate(900, 0)"><path d="M0 486.7C-70.6 449.7 -141.2 412.7 -217.5 376.7C-293.8 340.8 -375.7 306 -421.5 243.4C-467.4 180.8 -477.1 90.4 -486.7 0L0 0Z" fill="#FFE167"></path></g><g transform="translate(0, 600)"><path d="M0 -486.7C90.6 -477.2 181.2 -467.6 243.4 -421.5C305.5 -375.5 339.2 -292.8 375 -216.5C410.8 -140.2 448.8 -70.1 486.7 0L0 0Z" fill="#FFE167"></path></g></svg>